<?xml version="1.0" encoding="UTF-8" standalone="no"?>
<svg
   xmlns:dc="http://purl.org/dc/elements/1.1/"
   xmlns:cc="http://creativecommons.org/ns#"
   xmlns:rdf="http://www.w3.org/1999/02/22-rdf-syntax-ns#"
   xmlns:svg="http://www.w3.org/2000/svg"
   xmlns="http://www.w3.org/2000/svg"
   xmlns:sodipodi="http://sodipodi.sourceforge.net/DTD/sodipodi-0.dtd"
   xmlns:inkscape="http://www.inkscape.org/namespaces/inkscape"
   height="512"
   viewBox="0 0 499.573 499.573"
   width="512"
   version="1.1"
   id="svg22"
   sodipodi:docname="virus.svg"
   inkscape:export-filename="C:\prj\GenA\game\phaser\prj1\static\assets\virus.png"
   inkscape:export-xdpi="5.625"
   inkscape:export-ydpi="5.625"
   inkscape:version="1.0.1 (3bc2e813f5, 2020-09-07)">
  <metadata
     id="metadata28">
    <rdf:RDF>
      <cc:Work
         rdf:about="">
        <dc:format>image/svg+xml</dc:format>
        <dc:type
           rdf:resource="http://purl.org/dc/dcmitype/StillImage" />
      </cc:Work>
    </rdf:RDF>
  </metadata>
  <defs
     id="defs26" />
  <sodipodi:namedview
     pagecolor="#ffffff"
     bordercolor="#666666"
     borderopacity="1"
     objecttolerance="10"
     gridtolerance="10"
     guidetolerance="10"
     inkscape:pageopacity="0"
     inkscape:pageshadow="2"
     inkscape:window-width="1359"
     inkscape:window-height="916"
     id="namedview24"
     showgrid="false"
     inkscape:zoom="1.1462864"
     inkscape:cx="298.20947"
     inkscape:cy="258.10182"
     inkscape:window-x="403"
     inkscape:window-y="66"
     inkscape:window-maximized="0"
     inkscape:current-layer="g20" />
  <g
     id="g20">
    <path
       d="m499.421 228.968c-1.043-13.54-7.164-25.639-17.233-34.069-9.426-7.891-21.271-11.569-33.356-10.357-16.482 1.653-30.999 12.435-38.155 27.957l-14.979 1.323-14.784-4.144c-1.149-.322-2.076-1.232-2.48-2.434-4.296-12.781-10.428-24.85-18.241-35.905l5.232-14.067 16.513-17.86c9.392-.315 18.126-4.455 24.389-11.674 11.333-13.063 10.862-33.082-1.074-45.575-6.551-6.856-15.375-10.614-24.813-10.513-9.319.076-18.29 4.042-24.614 10.883-6.195 6.7-9.367 15.439-8.973 24.435l-16.515 17.863-13.838 6.419c-20.64-12.065-44.078-18.59-68.052-18.938l-9.048-14.43-3.191-15.857c12.713-10.395 18.653-26.541 15.256-42.447-5.098-23.869-29.677-39.417-54.786-34.654-12.642 2.396-23.398 9.426-30.287 19.792-6.453 9.711-8.682 21.264-6.275 32.53 3.208 15.021 14.097 27.138 28.911 32.544l3.525 17.518-2.804 17.075c-12.772 5.713-24.551 13.287-35.104 22.57l-10.372-1.848-11.72-8.842c-1.675-8.901-6.813-16.737-14.447-21.859-14.247-9.56-33.405-6.945-44.563 6.082-6.168 7.202-9.004 16.343-7.985 25.737 1.005 9.264 5.847 17.795 13.284 23.406 7.69 5.801 17.47 8.014 26.831 6.215l9.821 7.409 4.405 9.014c.195.399.2.859.015 1.261-8.401 18.267-12.66 37.769-12.66 57.965 0 3.738.155 7.538.46 11.294.047.58-.182 1.11-.614 1.417l-16.585 11.817-18.93 5.955c-11.623-8.993-26.992-11.709-41.138-7.034-.283.094-.562.195-.84.298l-.234.086c-3.897 1.404-5.918 5.701-4.515 9.598 1.403 3.896 5.698 5.919 9.598 4.515l.351-.128c.118-.043.236-.088.353-.127 10.331-3.416 21.651-.875 29.544 6.63 1.415 1.345 3.272 2.064 5.168 2.064.752 0 1.511-.113 2.25-.346l24.028-7.559c.751-.236 1.46-.589 2.102-1.046l17.552-12.506c4.706-3.352 7.335-9.043 6.861-14.852-.272-3.353-.411-6.743-.411-10.077 0-18.017 3.798-35.411 11.289-51.698 2.073-4.509 2.013-9.653-.166-14.113l-5.194-10.628c-.518-1.061-1.279-1.983-2.221-2.694l-14.119-10.652c-1.946-1.468-4.485-1.899-6.804-1.155-5.856 1.876-12.271.792-17.162-2.898-4.207-3.173-6.836-7.808-7.405-13.05-.568-5.236 1.018-10.336 4.465-14.361 6.11-7.133 17.009-8.62 24.813-3.384 4.811 3.229 7.847 8.383 8.33 14.143.178 2.126 1.253 4.076 2.957 5.361l15.638 11.798c.942.711 2.039 1.189 3.201 1.396l15.756 2.808c2.319.414 4.693-.286 6.417-1.886 10.977-10.186 23.523-18.224 37.292-23.891 2.405-.99 4.125-3.154 4.546-5.72l3.692-22.48c.147-.894.13-1.807-.048-2.695l-4.671-23.215c-.567-2.819-2.696-5.066-5.481-5.783-11.598-2.988-20.254-11.641-22.59-22.58-1.556-7.284-.1-14.776 4.1-21.096 4.635-6.975 11.947-11.719 20.588-13.357 17.173-3.252 33.914 7.085 37.323 23.049 2.441 11.432-2.645 23.127-12.958 29.795-2.587 1.673-3.888 4.758-3.28 7.778l4.407 21.9c.179.888.517 1.736.998 2.504l10.833 17.281c2.092 3.337 5.691 5.329 9.647 5.329h.004c22.574 0 44.696 6.152 63.977 17.792 3.232 1.951 7.199 2.172 10.611.591l16.957-7.866c.888-.412 1.687-.994 2.351-1.712l19.8-21.416c1.554-1.68 2.255-3.977 1.905-6.239-.889-5.744.857-11.478 4.79-15.731 3.577-3.869 8.451-6.023 13.723-6.067 5.252-.001 10.184 2.043 13.845 5.876 6.645 6.955 6.904 18.104.589 25.382-3.96 4.564-9.69 6.92-15.722 6.467-2.281-.173-4.518.708-6.07 2.388l-19.8 21.416c-.665.718-1.182 1.56-1.523 2.477l-6.437 17.308c-1.323 3.557-.772 7.521 1.472 10.604 7.461 10.25 13.281 21.506 17.298 33.457 1.987 5.913 6.716 10.436 12.651 12.099l16.103 4.513c.872.245 1.781.328 2.684.249l20.913-1.847c2.942-.26 5.457-2.221 6.426-5.011 4.33-12.473 15.061-21.328 27.338-22.559 8.029-.806 15.927 1.657 22.231 6.934 6.947 5.816 11.176 14.24 11.906 23.719.482 6.264-.65 12.554-3.274 18.191-1.748 3.755-.122 8.216 3.634 9.965 3.757 1.748 8.217.122 9.965-3.634 3.705-7.97 5.306-16.848 4.627-25.676z"
       id="path2" />
    <path
       d="m 460.82279,266.105 c -2.105,0.693 -4.277,1.155 -6.455,1.374 -12.979,1.299 -25.11,-5.888 -30.917,-18.315 -1.335,-2.856 -4.316,-4.575 -7.455,-4.295 l -19.632,1.734 c -0.903,0.08 -1.783,0.322 -2.599,0.716 l -14.819,7.149 c -5.614,2.708 -9.488,8.058 -10.361,14.31 -1.3,9.303 -3.669,18.459 -7.04,27.212 -2.012,5.225 -1.614,10.998 1.093,15.837 l 5.278,9.438 c 0.576,1.03 1.387,1.91 2.368,2.567 l 14.688,9.854 c 2.023,1.358 4.582,1.647 6.858,0.777 5.741,-2.197 12.207,-1.471 17.296,1.943 4.375,2.935 7.258,7.417 8.116,12.619 0.857,5.196 -0.443,10.377 -3.663,14.587 -5.706,7.462 -16.504,9.55 -24.587,4.753 -4.982,-2.957 -8.3,-7.936 -9.101,-13.66 -0.296,-2.113 -1.478,-4 -3.25,-5.188 l -16.268,-10.914 c -0.98,-0.658 -2.102,-1.075 -3.273,-1.217 l -10.239,-1.245 c -5.727,-0.698 -11.437,1.213 -15.662,5.24 -8.2,7.813 -17.408,14.468 -27.367,19.779 -5.792,3.088 -9.648,9.114 -10.062,15.724 l -1.299,20.744 c -0.048,0.773 0.023,1.55 0.213,2.301 l 6.437,25.546 c 0.657,2.609 2.662,4.666 5.252,5.39 8.734,2.443 15.534,9.411 17.745,18.184 1.683,6.68 0.619,13.59 -2.998,19.456 -3.614,5.863 -9.316,9.918 -16.055,11.419 -12.563,2.8 -25.527,-4.579 -29.507,-16.796 -3.006,-9.229 -0.578,-19.178 6.335,-25.966 1.901,-1.866 2.669,-4.601 2.018,-7.184 l -6.477,-25.702 c -0.189,-0.751 -0.494,-1.469 -0.903,-2.127 l -9.985,-16.061 c -4.047,-6.511 -11.097,-10.396 -18.937,-10.396 -0.005,0 -0.01,0 -0.016,0 -8.11,0 -16.229,-0.793 -24.133,-2.357 -7.534,-1.492 -15.153,0.914 -20.381,6.431 l -13.202,13.932 c -0.533,0.563 -0.976,1.204 -1.313,1.902 l -14.778,30.661 c -1.001,2.077 -0.991,4.5 0.027,6.568 2.589,5.26 2.619,11.295 0.082,16.559 -2.29,4.751 -6.324,8.239 -11.358,9.822 -5.03,1.582 -10.347,1.019 -14.971,-1.583 -8.133,-4.577 -11.73,-14.929 -8.19,-23.566 2.361,-5.759 7.185,-9.869 13.236,-11.277 2.211,-0.514 4.071,-2.003 5.057,-4.048 l 14.874,-30.858 c 0.336,-0.698 0.563,-1.444 0.67,-2.211 l 2.914,-20.716 c 0.903,-6.417 -1.637,-12.916 -6.627,-16.962 -11.24,-9.115 -20.73,-19.992 -28.208,-32.33 -3.276,-5.405 -9.276,-8.801 -15.66,-8.861 l -20.68,-0.197 c -0.789,-0.01 -1.571,0.109 -2.322,0.345 l -22.641998,7.123 c -2.831,0.891 -4.871,3.367 -5.203,6.316 -1.302,11.571 -9.312,21.303 -20.407,24.793 -15.301,4.814 -31.807,-3.672 -36.788,-18.919 -1.98,-6.061 -1.916,-12.493 0.187,-18.601 1.348,-3.917 -0.734,-8.185 -4.651,-9.533 -3.9180003,-1.35 -8.1850003,0.735 -9.5330003,4.651 -3.173,9.22 -3.264,18.951 -0.262,28.141 6.094,18.653 23.6050003,30.606 42.3250003,30.605 4.384,0 8.838,-0.656 13.223,-2.036 15.15,-4.769 26.488,-17.233 29.977,-32.486 l 17.145998,-5.394 19.492,0.185 c 1.23,0.012 2.37,0.639 2.974,1.637 8.375,13.819 19.003,26.001 31.588,36.207 0.927,0.751 1.395,1.986 1.221,3.222 l -2.751,19.559 -12.923,26.813 c -9.05,3.203 -16.416,10.15 -20.102,19.141 -6.466,15.772 -0.141,33.97 14.713,42.328 8.272,4.656 17.801,5.658 26.825,2.82 8.898,-2.797 16.324,-9.219 20.373,-17.619 3.996,-8.291 4.446,-17.641 1.361,-26.177 l 12.801,-26.558 12.398,-13.083 c 1.667,-1.76 4.126,-2.52 6.581,-2.034 8.86,1.753 17.959,2.643 27.132,2.643 h 0.006 c 2.542,0 4.831,1.239 6.121,3.316 l 9.368,15.068 5.208,20.667 c -8.672,10.584 -11.405,24.777 -7.088,38.032 5.44,16.703 21.397,27.736 38.459,27.735 2.84,0 5.713,-0.306 8.571,-0.942 10.726,-2.389 19.805,-8.848 25.563,-18.189 5.76,-9.344 7.455,-20.351 4.773,-30.992 -3.153,-12.514 -12.16,-22.72 -23.989,-27.511 l -5.159,-20.476 1.226,-19.576 c 0.091,-1.455 0.915,-2.768 2.149,-3.426 11.158,-5.951 21.472,-13.405 30.657,-22.155 0.967,-0.921 2.244,-1.36 3.504,-1.208 l 8.457,1.028 12.192,8.18 c 2.165,8.794 7.73,16.333 15.636,21.025 14.755,8.755 33.738,5.084 44.157,-8.542 5.761,-7.533 8.086,-16.816 6.547,-26.14 -1.517,-9.194 -6.824,-17.444 -14.56,-22.634 -7.999,-5.366 -17.887,-7.033 -27.134,-4.719 l -10.216,-6.854 -4.401,-7.87 c -0.523,-0.936 -0.591,-2.075 -0.187,-3.125 3.782,-9.821 6.439,-20.092 7.897,-30.527 0.178,-1.275 0.935,-2.35 2.023,-2.875 l 13.585,-6.554 13.337,-1.178 c 9.27,15.343 25.811,23.931 43.479,22.158 3.261,-0.327 6.506,-1.017 9.647,-2.05 3.935,-1.295 6.074,-5.534 4.779,-9.469 -1.295,-3.938 -5.535,-6.076 -9.469,-4.782 z"
       id="path4" />
    <path
       d="m 270.544,149.26 c -7.863,-1.847 -15.97,-2.783 -24.096,-2.783 -57.906,0 -105.017,47.11 -105.017,105.017 0,57.907 47.11,105.017 105.017,105.017 57.907,0 105.017,-47.11 105.017,-105.017 0,-36.206 -18.289,-69.397 -48.922,-88.789 -3.04958,-1.76458 -7.38264,-0.79782 -9.59664,2.70118 -2.21198,3.49197 -0.20465,8.52666 1.57364,9.97282 26.265,16.626 41.945,45.081 41.945,76.115 0,49.635 -40.381,90.017 -90.017,90.017 -49.636,0 -90.017,-40.381 -90.017,-90.017 0,-49.636 40.381,-90.017 90.017,-90.017 6.973,0 13.926,0.803 20.667,2.386 6.37819,2.34328 10.66776,-0.72473 11.54251,-4.78643 0.947,-4.033 -1.31486,-8.30502 -8.11351,-9.81657 z"
       id="path6"
       sodipodi:nodetypes="csssscccssssccc" />
    <path
       d="m 81.513792,81.703 c 19.448998,0 35.270998,-15.822 35.270998,-35.271 0,-19.449 -15.822,-35.271 -35.270998,-35.271 -19.449,0 -35.271,15.823 -35.271,35.272 0,19.448 15.822,35.27 35.271,35.27 z m 0,-55.541 c 11.177,0 20.270998,9.094 20.270998,20.271 0,11.177 -9.093998,20.271 -20.270998,20.271 -11.177,0 -20.271,-9.094 -20.271,-20.271 0,-11.177 9.094,-20.271 20.271,-20.271 z"
       id="path8" />
    <path
       d="m74.774 386.653c-14.25 0-25.844 11.593-25.844 25.843s11.593 25.844 25.844 25.844c14.25 0 25.843-11.593 25.843-25.844 0-14.249-11.593-25.843-25.843-25.843zm0 36.687c-5.979 0-10.844-4.864-10.844-10.844 0-5.979 4.864-10.843 10.844-10.843 5.979 0 10.843 4.864 10.843 10.843 0 5.98-4.864 10.844-10.843 10.844z"
       id="path10" />
    <path
       d="m411.563 408.111c-19.033 0-34.518 15.484-34.518 34.518s15.484 34.518 34.518 34.518 34.518-15.484 34.518-34.518-15.485-34.518-34.518-34.518zm0 54.035c-10.762 0-19.518-8.755-19.518-19.518s8.755-19.518 19.518-19.518 19.518 8.755 19.518 19.518-8.756 19.518-19.518 19.518z"
       id="path12" />
    <path
       d="m249.203 224.601c0-18.025-14.664-32.689-32.689-32.689s-32.689 14.664-32.689 32.689 14.664 32.689 32.689 32.689 32.689-14.665 32.689-32.689zm-32.689 17.689c-9.754 0-17.689-7.935-17.689-17.689s7.935-17.689 17.689-17.689 17.689 7.935 17.689 17.689-7.935 17.689-17.689 17.689z"
       id="path14" />
    <path
       d="m236.735 327.483c13.589 0 24.645-11.056 24.645-24.645s-11.056-24.645-24.645-24.645-24.645 11.056-24.645 24.645c0 13.59 11.055 24.645 24.645 24.645zm0-34.289c5.318 0 9.645 4.327 9.645 9.645s-4.327 9.645-9.645 9.645-9.645-4.327-9.645-9.645 4.326-9.645 9.645-9.645z"
       id="path16" />
    <path
       d="m268.673 251.494c0 12.074 9.823 21.897 21.897 21.897s21.897-9.823 21.897-21.897-9.823-21.897-21.897-21.897-21.897 9.822-21.897 21.897zm21.897-6.898c3.803 0 6.897 3.094 6.897 6.897s-3.094 6.897-6.897 6.897-6.897-3.094-6.897-6.897 3.093-6.897 6.897-6.897z"
       id="path18" />
    <ellipse
       style="fill:#ff0000;stroke-width:1.25537"
       id="path48"
       cx="205.99242"
       cy="49.795689"
       rx="34.048332"
       ry="31.069105" />
    <ellipse
       style="fill:#ff0000;stroke-width:0.975729"
       id="path53"
       cx="210.67406"
       cy="19.577793"
       rx="0.42560416"
       ry="5.1072497" />
    <ellipse
       style="fill:#ff0000;stroke-width:1.30533"
       id="path48-9"
       cx="452.41724"
       cy="233.23108"
       rx="32.771519"
       ry="34.89954" />
    <ellipse
       style="fill:#ff0000;stroke-width:0.739046"
       id="path48-0"
       cx="380.49011"
       cy="105.54984"
       rx="19.577791"
       ry="18.726585" />
    <ellipse
       style="fill:#ff0000;stroke-width:1.16634"
       id="path48-4"
       cx="44.688442"
       cy="316.82581"
       rx="30.217896"
       ry="30.217894" />
    <ellipse
       style="fill:#ff0000;stroke-width:1.00998"
       id="path48-7"
       cx="297.92288"
       cy="454.97089"
       rx="25.536249"
       ry="26.813063" />
    <ellipse
       style="fill:#ff0000;stroke-width:0.763472"
       id="path48-6"
       cx="154.91991"
       cy="441.35156"
       rx="20.429001"
       ry="19.152187" />
    <ellipse
       style="fill:#ff0000;stroke-width:0.821201"
       id="path48-41"
       cx="398.79108"
       cy="351.12347"
       rx="20.854603"
       ry="21.705812" />
    <ellipse
       style="fill:#ff0000;stroke-width:0.730968"
       id="path48-5"
       ry="19.754082"
       rx="21.134165"
       cy="142.57738"
       cx="98.740166" />
    <path
       style="fill:#00ff00;stroke-width:0.872382"
       d="m 213.85125,245.56423 c -8.51839,-4.49718 -11.94565,-15.0542 -7.55419,-23.26925 8.64945,-16.18045 32.93416,-10.38471 32.93416,7.86001 0,13.21062 -13.74148,21.55364 -25.37997,15.40924 z"
       id="path124"
       transform="scale(0.97572852)" />
    <path
       style="fill:#00ff00;stroke-width:0.872382"
       d="m 293.47099,262.15025 c -2.68403,-2.85702 -2.50547,-6.97173 0.40177,-9.25857 1.26424,-0.99445 2.81605,-1.80808 3.44848,-1.80808 2.42624,0 5.5161,2.06799 6.4467,4.31467 2.66238,6.42754 -5.5455,11.80966 -10.29695,6.75198 z"
       id="path126"
       transform="scale(0.97572852)" />
    <path
       style="fill:#00ff00;stroke-width:0.872382"
       d="m 238.53165,318.57755 c -3.04107,-1.53576 -5.40711,-5.11164 -5.40711,-8.17195 0,-4.43054 4.95398,-9.59621 9.20295,-9.59621 3.03228,0 7.27197,2.82463 8.67381,5.77879 1.80398,3.8016 1.13023,7.19475 -2.02973,10.22218 -3.11837,2.98759 -6.79197,3.60943 -10.43992,1.76719 z"
       id="path128"
       transform="scale(0.97572852)" />
    <path
       style="fill:#00ffff;stroke-width:0.872382"
       d="m 288.72204,437.92502 c -0.58101,-2.81299 -2.33643,-9.78114 -3.90093,-15.48478 -2.38178,-8.68322 -3.76396,-11.84796 -8.49626,-19.45365 -9.78106,-15.71999 -12.47795,-17.43037 -29.2035,-18.52107 -6.23687,-0.40671 -13.47371,-1.13397 -16.08187,-1.61611 -6.80992,-1.25888 -12.22621,-1.08396 -17.02075,0.54971 -3.33261,1.13554 -6.02775,3.31436 -13.2191,10.68668 -8.70669,8.9258 -9.27171,9.74654 -15.63976,22.71778 -3.6337,7.40158 -7.4057,15.31467 -8.38221,17.58462 l -1.77546,4.12719 -4.28494,-2.66365 c -2.75198,-1.71074 -5.85844,-2.81486 -8.68326,-3.08628 -3.95409,-0.37994 -4.27601,-0.56532 -3.18715,-1.83523 0.66616,-0.77694 4.76049,-8.87148 9.0985,-17.98787 7.70028,-16.18227 7.92288,-16.82973 9.38808,-27.30769 0.82543,-5.90283 1.34127,-13.23756 1.14631,-16.2994 -0.43042,-6.75955 -2.06868,-9.31475 -10.85786,-16.935 -7.24546,-6.28183 -15.66535,-16.05294 -22.04664,-25.58468 -7.77822,-11.61833 -10.662,-12.88979 -29.22588,-12.88578 l -13.17365,0.003 -12.850161,4.16138 c -13.487216,4.36769 -13.745924,4.36591 -13.766021,-0.0946 -0.0047,-1.04033 -0.998634,-4.01851 -2.208771,-6.61819 -1.210137,-2.59966 -1.893303,-4.99951 -1.518147,-5.33301 0.375156,-0.33349 6.178111,-2.27954 12.895455,-4.32456 6.717344,-2.04502 12.998497,-4.11908 13.958117,-4.60903 5.533708,-2.82532 21.929968,-15.47403 23.882988,-18.42427 2.17914,-3.29181 2.25112,-3.84671 2.37629,-18.32003 0.18237,-21.08781 3.35655,-37.3435 10.40323,-53.27729 3.34415,-7.56173 2.98007,-12.42968 -1.6395,-21.92111 -3.69781,-7.59755 -4.03378,-7.98141 -12.73396,-14.54909 -4.91477,-3.71011 -9.29053,-6.74565 -9.72392,-6.74565 -0.43338,0 0.73688,-1.52485 2.60058,-3.38855 1.8637,-1.8637 3.85638,-4.90613 4.42818,-6.76096 0.57179,-1.85483 1.18984,-3.85289 1.37343,-4.44013 0.19767,-0.63223 4.5293,2.08712 10.62042,6.66739 10.19016,7.66257 10.36023,7.74826 18.13806,9.13902 13.24377,2.36814 14.08499,2.21185 21.4846,-3.99146 8.48599,-7.11406 19.16266,-14.01589 28.03045,-18.12 3.95439,-1.83014 7.85966,-4.07251 8.67838,-4.98304 0.99558,-1.10723 2.20522,-6.09801 3.65241,-15.06924 l 2.16384,-13.41371 -2.5635,-12.656891 c -1.40993,-6.961288 -2.46466,-12.736144 -2.34384,-12.833012 0.12081,-0.09687 3.16395,-0.617743 6.76252,-1.157501 3.59858,-0.539758 7.34063,-1.204342 8.31566,-1.476853 1.649,-0.460873 1.94511,0.3883 4.24019,12.159504 l 2.46739,12.654983 6.59887,10.62068 c 3.83425,6.17108 7.63856,11.25295 9.08046,12.12983 1.74246,1.05965 5.35601,1.68372 12.13226,2.09528 19.33596,1.17438 35.54766,5.60627 53.05693,14.50446 6.2392,3.17076 11.40383,5.23446 13.09978,5.23446 1.53987,0 7.18777,-2.0049 12.55089,-4.45535 10.34443,-4.72643 12.9975,-6.96174 29.17776,-24.58328 2.98993,-3.25627 5.43625,-5.52722 5.43625,-5.04655 0,1.85277 5.84802,7.41088 9.49467,9.02399 l 3.82419,1.69164 -2.15209,1.87047 c -1.18365,1.02877 -6.56465,6.65331 -11.95777,12.499 -9.79449,10.61638 -9.81009,10.64029 -13.65677,20.93718 -5.0204,13.43869 -5.00886,15.64377 0.1227,23.43529 6.25591,9.49872 9.57341,15.80272 13.52176,25.69438 2.01097,5.03801 4.39541,10.2119 5.29876,11.49756 2.60862,3.71262 7.03133,5.9184 18.04024,8.9974 11.0288,3.08457 10.10395,3.05818 31.33392,0.89388 l 4.58001,-0.46691 0.0208,5.8962 c 0.0114,3.24292 0.37037,7.40246 0.7976,9.24345 0.73292,3.15816 0.67015,3.32101 -1.11128,2.88299 -1.03845,-0.25534 -7.18781,0.0555 -13.66525,0.69078 -11.2445,1.10279 -12.19146,1.35166 -20.93718,5.50238 -13.76891,6.53473 -16.11974,9.49458 -18.62857,23.45465 -0.78697,4.379 -2.80606,12.2047 -4.48688,17.39044 -4.12912,12.73943 -4.02524,15.0546 1.12238,25.01354 4.00977,7.7576 4.47625,8.28856 11.55906,13.15693 4.05937,2.7902 7.96706,5.41107 8.68376,5.82414 1.10852,0.63891 1.01891,1.05373 -0.60015,2.77834 -2.36324,2.51731 -5.45626,9.21008 -5.48188,11.86185 -0.0173,1.79021 -0.95514,1.34475 -9.6423,-4.58001 -5.29272,-3.60972 -10.29802,-6.57596 -11.12287,-6.59166 -0.82486,-0.0157 -4.24775,-0.38272 -7.60642,-0.81562 -10.94531,-1.41071 -13.0071,-0.53 -28.04254,11.97848 -3.90796,3.25116 -10.69593,8.01874 -15.08438,10.59464 -8.84239,5.19023 -12.47941,8.93276 -13.94492,14.34953 -0.53791,1.9882 -1.34079,8.91463 -1.78418,15.39207 l -0.80616,11.77717 3.41812,13.60769 c 1.87998,7.48422 3.66695,14.25609 3.97106,15.04859 0.46166,1.20306 -0.0745,1.44231 -3.24804,1.44943 -2.2034,0.005 -5.76237,0.9216 -8.46759,2.18095 -2.56665,1.19485 -4.74539,2.17244 -4.84165,2.17244 -0.0963,0 -0.6504,-2.30154 -1.23141,-5.11453 z m -17.07653,-73.87791 c 26.37985,-4.60026 50.82459,-19.63843 67.10857,-41.28458 29.03051,-38.58997 29.04292,-91.56585 0.0305,-130.16186 -10.75251,-14.30436 -21.00427,-22.51932 -39.08394,-31.31885 -16.61868,-8.08844 -25.75804,-10.47282 -42.61736,-11.11849 -32.45647,-1.24302 -58.60846,9.16158 -81.49984,32.42478 -14.51047,14.74616 -23.09842,30.02771 -28.16063,50.10954 -2.12633,8.43521 -2.3292,10.69175 -2.28318,25.39684 0.0475,15.17142 0.21241,16.75246 2.75072,26.36954 10.74118,40.69567 42.45003,70.75345 83.52556,79.17641 10.15427,2.08223 29.49979,2.2778 40.22959,0.40667 z"
       id="path132"
       transform="scale(0.97572852)" />
  </g>
</svg>
